<svg width="50" height="50" viewBox="0 0 50 50" fill="none" xmlns="http://www.w3.org/2000/svg">
<path d="M14.6958 43.1034H35.3852C35.3852 46.912 32.2972 50 28.4886 50H21.592C17.7834 50 14.6958 46.912 14.6958 43.1034Z" fill="#D1D4D1"/>
<path d="M14.6958 12.0689H35.3852V37.9311H14.6958V12.0689Z" fill="#E6E7E8"/>
<path d="M21.592 0H28.4886C32.2972 0 35.3852 3.088 35.3852 6.89659H14.6958C14.6958 3.088 17.7834 0 21.592 0Z" fill="#D1D4D1"/>
<path d="M18.1439 7.75871C17.6682 7.75871 17.2817 7.37228 17.2817 6.89659C17.2844 4.51736 19.2127 2.58865 21.592 2.58636C22.068 2.58636 22.4541 2.97241 22.4541 3.4481C22.4541 3.92418 22.068 4.31023 21.592 4.31023C20.1637 4.31023 19.006 5.46799 19.006 6.89659C19.006 7.37228 18.6196 7.75871 18.1439 7.75871Z" fill="#E6E7E8"/>
<path d="M21.592 47.4136C19.2127 47.4113 17.2844 45.4826 17.2817 43.1034C17.2817 42.6277 17.6682 42.2413 18.1439 42.2413C18.6196 42.2413 19.006 42.6277 19.006 43.1034C19.006 44.532 20.1637 45.6898 21.592 45.6898C22.068 45.6898 22.4541 46.0758 22.4541 46.5519C22.4541 47.0276 22.068 47.4136 21.592 47.4136Z" fill="#E6E7E8"/>
<path d="M35.3852 16.9743L14.6958 24.1119V19.207L35.3852 12.0689V16.9743Z" fill="#E64C3C"/>
<path d="M35.3852 29.9053L14.6958 37.043V32.1381L35.3852 25V29.9053Z" fill="#E64C3C"/>
<path d="M13.8336 6.89661H36.2473C37.1998 6.89661 37.9715 7.66794 37.9715 8.62085V10.3447C37.9715 11.2972 37.1998 12.069 36.2473 12.069H13.8336C12.8811 12.069 12.1094 11.2972 12.1094 10.3447V8.62085C12.1094 7.66794 12.8811 6.89661 13.8336 6.89661Z" fill="#A5A5A4"/>
<path d="M13.8336 37.9311H36.2473C37.1998 37.9311 37.9715 38.7028 37.9715 39.6553V41.3792C37.9715 42.3321 37.1998 43.1034 36.2473 43.1034H13.8336C12.8811 43.1034 12.1094 42.3321 12.1094 41.3792V39.6553C12.1094 38.7028 12.8811 37.9311 13.8336 37.9311Z" fill="#A5A5A4"/>
</svg>
