<svg width="51" height="51" viewBox="0 0 51 51" fill="none" xmlns="http://www.w3.org/2000/svg">
<path d="M25.5 4.25C13.77 4.25 4.25 13.77 4.25 25.5C4.25 37.23 13.77 46.75 25.5 46.75C37.23 46.75 46.75 37.23 46.75 25.5C46.75 13.77 37.23 4.25 25.5 4.25ZM25.5 10.625C29.0275 10.625 31.875 13.4725 31.875 17C31.875 20.5275 29.0275 23.375 25.5 23.375C21.9725 23.375 19.125 20.5275 19.125 17C19.125 13.4725 21.9725 10.625 25.5 10.625ZM25.5 40.8C20.1875 40.8 15.4913 38.08 12.75 33.9575C12.8138 29.7288 21.25 27.4125 25.5 27.4125C29.7288 27.4125 38.1863 29.7288 38.25 33.9575C35.5088 38.08 30.8125 40.8 25.5 40.8Z" fill="#999999"/>
</svg>
