<svg width="35" height="35" viewBox="0 0 35 35" fill="none" xmlns="http://www.w3.org/2000/svg">
<path d="M4.37484 31.5V7.87498C4.37427 6.26398 5.6805 4.95774 7.2915 4.95831H34.1758C33.8454 3.67002 32.6839 2.76967 31.354 2.77081H3.64567C2.03467 2.77024 0.728434 4.07648 0.729004 5.68748V29.3125C0.728434 30.9235 2.03467 32.2297 3.64567 32.2291H4.46969C4.40446 31.9916 4.37256 31.7464 4.37484 31.5Z" fill="#D4E1F4"/>
<path d="M31.3542 2.04169H3.64583C1.63265 2.04254 0.000854496 3.67434 0 5.68752V29.3125C0.000854496 31.3257 1.63265 32.9575 3.64583 32.9584H31.3542C33.3673 32.9575 34.9991 31.3257 35 29.3125V5.68752C34.9991 3.67434 33.3673 2.04254 31.3542 2.04169ZM3.64583 3.50002H31.3542C32.5607 3.50344 33.5382 4.48098 33.5417 5.68752V8.72809H1.45833V5.68752C1.46175 4.48098 2.43929 3.50344 3.64583 3.50002ZM31.3542 31.5H3.64583C2.43929 31.4966 1.46175 30.5191 1.45833 29.3125V10.1864H33.5417V29.3125C33.5382 30.5191 32.5607 31.4966 31.3542 31.5Z" fill="#18298C"/>
<path d="M29.5605 22.5387H20.3366C19.9341 22.5387 19.6074 22.8651 19.6074 23.2679C19.6074 23.6703 19.9341 23.997 20.3366 23.997H29.5605C29.9633 23.997 30.2897 23.6703 30.2897 23.2679C30.2897 22.8651 29.9633 22.5387 29.5605 22.5387Z" fill="#18298C"/>
<path d="M29.5605 26.7823H20.3366C19.9341 26.7823 19.6074 27.1088 19.6074 27.5115C19.6074 27.9143 19.9341 28.2407 20.3366 28.2407H29.5605C29.9633 28.2407 30.2897 27.9143 30.2897 27.5115C30.2897 27.1088 29.9633 26.7823 29.5605 26.7823Z" fill="#18298C"/>
<path d="M29.5605 14.051H20.3366C19.9341 14.051 19.6074 14.3774 19.6074 14.7802C19.6074 15.1829 19.9341 15.5094 20.3366 15.5094H29.5605C29.9633 15.5094 30.2897 15.1829 30.2897 14.7802C30.2897 14.3774 29.9633 14.051 29.5605 14.051Z" fill="#18298C"/>
<path d="M29.5605 18.2947H20.3366C19.9341 18.2947 19.6074 18.6214 19.6074 19.0238C19.6074 19.4266 19.9341 19.753 20.3366 19.753H29.5605C29.9633 19.753 30.2897 19.4266 30.2897 19.0238C30.2897 18.6214 29.9633 18.2947 29.5605 18.2947Z" fill="#18298C"/>
<path d="M10.4559 20.8542C12.5361 20.8562 14.224 19.1717 14.226 17.0916C14.2279 15.0117 12.5435 13.3238 10.4633 13.3218C8.38322 13.3198 6.6956 15.0043 6.6936 17.0845C6.69617 19.1623 8.37809 20.8474 10.4559 20.8542ZM10.4559 14.7802C11.3902 14.7787 12.233 15.3404 12.591 16.2032C12.9493 17.0659 12.752 18.0594 12.0914 18.72C11.4312 19.3805 10.4374 19.5776 9.57495 19.2195C8.7122 18.8612 8.15051 18.0184 8.15194 17.0845C8.15536 15.8133 9.18502 14.7839 10.4559 14.7802Z" fill="#04BF8A"/>
<path d="M10.4562 22.247C8.91414 22.237 7.43445 22.8557 6.35836 23.9606C5.26461 25.076 4.66675 26.5927 4.66675 28.2407C4.66789 28.6429 4.99373 28.9687 5.39591 28.9699H15.5239C15.9264 28.9687 16.252 28.6429 16.2531 28.2407C16.2531 26.5927 15.6552 25.076 14.5615 23.9606C13.4825 22.8554 12.0006 22.2368 10.4562 22.247ZM6.17607 27.5115C6.30111 26.5582 6.73063 25.6707 7.40112 24.9814C8.20805 24.1648 9.30835 23.7053 10.4562 23.7053C11.6044 23.7053 12.7047 24.1648 13.5116 24.9814C14.1807 25.6715 14.6102 26.5585 14.7367 27.5115H6.17607Z" fill="#04BF8A"/>
</svg>
