<svg width="100" height="100" viewBox="0 0 100 100" fill="none" xmlns="http://www.w3.org/2000/svg">
<path d="M50 0C22.43 0 0 22.43 0 50C0 77.57 22.43 100 50 100C77.57 100 100 77.57 100 50C100 22.43 77.57 0 50 0ZM50 89.3608C28.2966 89.3608 10.6381 71.7044 10.6381 50C10.6381 28.2956 28.2966 10.6392 50 10.6392C71.7034 10.6392 89.3619 28.2956 89.3619 50C89.3619 71.7044 71.7034 89.3608 50 89.3608Z" fill="#959597"/>
<path d="M76.058 48.4561H53.5878V21.4388C53.5878 19.1653 51.7445 17.3219 49.4709 17.3219C47.1974 17.3219 45.354 19.1653 45.354 21.4388V52.573C45.354 54.8466 47.1974 56.69 49.4709 56.69H76.058C78.3316 56.69 80.1749 54.8466 80.1749 52.573C80.1749 50.2995 78.3316 48.4561 76.058 48.4561Z" fill="#959597"/>
</svg>
