<svg width="486" height="65" viewBox="0 0 486 65" fill="none" xmlns="http://www.w3.org/2000/svg">
<g filter="url(#filter0_d)">
<path d="M7.01276 7.987C7.01276 3.56872 10.5945 0 15.0128 0H477.013C481.431 0 485.013 3.58172 485.013 8V56C485.013 60.4183 481.717 64 477.299 64C415.09 64 -2.30098 64 0.0127564 64C2.51276 64 7.01276 61 7.01276 57C7.01276 53.9762 7.01276 22.9502 7.01276 7.987Z" fill="#F1F1F1"/>
<path d="M7.51276 7.987C7.51276 3.84592 10.8696 0.5 15.0128 0.5H477.013C481.155 0.5 484.513 3.85786 484.513 8V56C484.513 60.1663 481.417 63.5 477.299 63.5H476.93H476.553H476.169H475.776H475.375H474.966H474.55H474.125H473.693H473.253H472.805H472.349H471.886H471.415H470.936H470.45H469.956H469.454H468.945H468.429H467.905H467.374H466.835H466.289H465.736H465.175H464.607H464.032H463.45H462.861H462.265H461.661H461.051H460.433H459.809H459.178H458.54H457.895H457.243H456.584H455.919H455.247H454.568H453.883H453.191H452.492H451.787H451.076H450.358H449.633H448.902H448.165H447.421H446.672H445.915H445.153H444.385H443.61H442.829H442.042H441.249H440.45H439.645H438.835H438.018H437.195H436.366H435.532H434.692H433.846H432.995H432.137H431.275H430.406H429.532H428.653H427.768H426.877H425.981H425.08H424.173H423.261H422.344H421.421H420.493H419.56H418.622H417.679H416.731H415.777H414.819H413.856H412.888H411.914H410.936H409.953H408.966H407.973H406.976H405.974H404.967H403.956H402.94H401.92H400.895H399.866H398.832H397.794H396.751H395.704H394.653H393.597H392.537H391.473H390.405H389.332H388.256H387.175H386.091H385.002H383.909H382.813H381.712H380.608H379.5H378.388H377.272H376.153H375.03H373.903H372.772H371.638H370.501H369.36H368.215H367.067H365.916H364.761H363.603H362.441H361.276H360.108H358.937H357.763H356.585H355.404H354.221H353.034H351.844H350.651H349.456H348.257H347.056H345.851H344.644H343.434H342.222H341.007H339.789H338.568H337.345H336.119H334.891H333.661H332.427H331.192H329.954H328.714H327.471H326.226H324.979H323.73H322.479H321.225H319.969H318.711H317.452H316.19H314.926H313.66H312.393H311.123H309.852H308.579H307.304H306.028H304.75H303.47H302.188H300.905H299.62H298.334H297.047H295.758H294.467H293.175H291.882H290.588H289.292H287.995H286.697H285.397H284.097H282.795H281.493H280.189H278.884H277.579H276.272H274.965H273.656H272.347H271.037H269.727H268.415H267.103H265.791H264.477H263.163H261.849H260.534H259.219H257.903H256.586H255.27H253.953H252.636H251.318H250H248.682H247.364H246.046H244.728H243.409H242.091H240.772H239.454H238.136H236.818H235.499H234.182H232.864H231.547H230.23H228.913H227.596H226.28H224.965H223.65H222.335H221.021H219.707H218.395H217.082H215.771H214.46H213.149H211.84H210.531H209.224H207.917H206.611H205.306H204.002H202.699H201.397H200.096H198.796H197.497H196.2H194.904H193.609H192.315H191.023H189.732H188.442H187.154H185.867H184.582H183.299H182.017H180.736H179.457H178.18H176.905H175.631H174.359H173.089H171.821H170.554H169.29H168.027H166.767H165.508H164.252H162.997H161.745H160.495H159.247H158.002H156.758H155.517H154.278H153.042H151.808H150.576H149.347H148.121H146.897H145.675H144.456H143.24H142.026H140.816H139.607H138.402H137.2H136H134.803H133.609H132.419H131.231H130.046H128.864H127.685H126.51H125.337H124.168H123.002H121.839H120.68H119.524H118.371H117.222H116.076H114.934H113.795H112.659H111.528H110.399H109.275H108.154H107.037H105.924H104.814H103.708H102.607H101.509H100.415H99.3244H98.2383H97.1562H96.0782H95.0043H93.9345H92.8689H91.8075H90.7503H89.6974H88.6488H87.6046H86.5647H85.5292H84.4982H83.4716H82.4496H81.4321H80.4192H79.4109H78.4073H77.4084H76.4141H75.4247H74.44H73.4602H72.4852H71.5151H70.5499H69.5897H68.6345H67.6844H66.7393H65.7993H64.8644H63.9347H63.0103H62.091H61.1771H60.2684H59.3651H58.4672H57.5747H56.6876H55.8061H54.93H54.0595H53.1946H52.3353H51.4817H50.6338H49.7915H48.9551H48.1244H47.2996H46.4806H45.6676H44.8605H44.0593H43.2641H42.475H41.692H40.9151H40.1443H39.3796H38.6212H37.8691H37.1232H36.3836H35.6504H34.9236H34.2032H33.4892H32.7818H32.0808H31.3865H30.6987H30.0175H29.343H28.6752H28.0141H27.3598H26.7123H26.0716H25.4378H24.8109H24.191H23.578H22.972H22.3731H21.7812H21.1965H20.6189H20.0484H19.4852H18.9293H18.3806H17.8393H17.3053H16.7787H16.2595H15.7478H15.2436H14.7469H14.2577H13.7762H13.3023H12.8361H12.3775H11.9267H11.4837H11.0485H10.6211H10.2016H9.78996H9.38629H8.99061H8.60294H8.22332H7.85178H7.48835H7.13308H6.786H6.44713H6.11652H5.7942H5.4802H5.17457H4.87733H4.58851H4.30816H4.03631H3.77299H3.51823H3.27208H3.20081C3.74724 63.1865 4.28306 62.808 4.77835 62.3773C6.28184 61.0699 7.51276 59.1935 7.51276 57V56.982V56.9633V56.944V56.924V56.9034V56.8822V56.8604V56.8379V56.8148V56.7911V56.7668V56.7418V56.7162V56.69V56.6632V56.6358V56.6078V56.5792V56.5499V56.5201V56.4896V56.4586V56.427V56.3947V56.3619V56.3285V56.2945V56.2599V56.2247V56.1889V56.1526V56.1156V56.0781V56.0401V56.0014V55.9622V55.9224V55.882V55.8411V55.7996V55.7575V55.7149V55.6717V55.628V55.5837V55.5388V55.4935V55.4475V55.401V55.354V55.3064V55.2583V55.2097V55.1605V55.1108V55.0605V55.0097V54.9584V54.9066V54.8542V54.8013V54.7479V54.694V54.6395V54.5846V54.5291V54.4731V54.4166V54.3596V54.3021V54.2441V54.1856V54.1266V54.0671V54.0071V53.9466V53.8856V53.8241V53.7622V53.6997V53.6368V53.5734V53.5095V53.4451V53.3803V53.315V53.2492V53.1829V53.1162V53.049V52.9814V52.9132V52.8447V52.7756V52.7062V52.6362V52.5658V52.495V52.4237V52.3519V52.2798V52.2071V52.1341V52.0606V51.9866V51.9123V51.8375V51.7622V51.6866V51.6105V51.534V51.457V51.3797V51.3019V51.2237V51.1451V51.0661V50.9867V50.9068V50.8266V50.7459V50.6649V50.5834V50.5016V50.4193V50.3367V50.2537V50.1702V50.0864V50.0022V49.9176V49.8327V49.7473V49.6616V49.5755V49.489V49.4022V49.3149V49.2274V49.1394V49.0511V48.9624V48.8733V48.7839V48.6942V48.604V48.5136V48.4227V48.3316V48.2401V48.1482V48.056V47.9634V47.8705V47.7773V47.6837V47.5898V47.4956V47.401V47.3062V47.2109V47.1154V47.0196V46.9234V46.8269V46.7301V46.6329V46.5355V46.4378V46.3397V46.2413V46.1427V46.0437V45.9444V45.8449V45.745V45.6448V45.5444V45.4437V45.3426V45.2413V45.1397V45.0378V44.9357V44.8332V44.7305V44.6275V44.5243V44.4207V44.3169V44.2129V44.1085V44.0039V43.8991V43.794V43.6886V43.583V43.4771V43.3709V43.2646V43.1579V43.0511V42.9439V42.8366V42.729V42.6212V42.5131V42.4048V42.2963V42.1875V42.0785V41.9693V41.8599V41.7502V41.6403V41.5302V41.4199V41.3094V41.1987V41.0877V40.9766V40.8652V40.7536V40.6419V40.5299V40.4178V40.3054V40.1928V40.0801V39.9672V39.854V39.7407V39.6273V39.5136V39.3997V39.2857V39.1715V39.0571V38.9426V38.8278V38.713V38.5979V38.4827V38.3673V38.2518V38.136V38.0202V37.9042V37.788V37.6717V37.5552V37.4386V37.3219V37.205V37.0879V36.9708V36.8535V36.736V36.6184V36.5007V36.3829V36.2649V36.1468V36.0286V35.9103V35.7918V35.6732V35.5546V35.4358V35.3168V35.1978V35.0787V34.9595V34.8401V34.7207V34.6012V34.4815V34.3618V34.242V34.1221V34.0021V33.882V33.7618V33.6416V33.5212V33.4008V33.2803V33.1597V33.0391V32.9184V32.7976V32.6767V32.5558V32.4348V32.3138V32.1927V32.0715V31.9503V31.829V31.7077V31.5863V31.4649V31.3434V31.2219V31.1004V30.9788V30.8571V30.7355V30.6138V30.492V30.3703V30.2485V30.1267V30.0048V29.8829V29.7611V29.6392V29.5172V29.3953V29.2733V29.1514V29.0294V28.9074V28.7855V28.6635V28.5415V28.4195V28.2975V28.1756V28.0536V27.9316V27.8097V27.6878V27.5658V27.4439V27.3221V27.2002V27.0784V26.9565V26.8348V26.713V26.5913V26.4696V26.3479V26.2263V26.1047V25.9832V25.8617V25.7402V25.6188V25.4974V25.3761V25.2549V25.1337V25.0125V24.8914V24.7704V24.6494V24.5285V24.4077V24.2869V24.1662V24.0456V23.9251V23.8046V23.6842V23.5639V23.4436V23.3235V23.2034V23.0835V22.9636V22.8438V22.7241V22.6045V22.485V22.3655V22.2462V22.127V22.0079V21.889V21.7701V21.6513V21.5327V21.4141V21.2957V21.1774V21.0592V20.9412V20.8232V20.7054V20.5877V20.4702V20.3528V20.2355V20.1184V20.0014V19.8845V19.7678V19.6512V19.5348V19.4185V19.3024V19.1864V19.0706V18.955V18.8395V18.7241V18.609V18.4939V18.3791V18.2644V18.1499V18.0356V17.9214V17.8074V17.6936V17.58V17.4666V17.3533V17.2403V17.1274V17.0147V16.9022V16.7899V16.6778V16.5659V16.4542V16.3427V16.2314V16.1203V16.0094V15.8987V15.7882V15.678V15.5679V15.4581V15.3485V15.2392V15.13V15.0211V14.9124V14.8039V14.6957V14.5877V14.4799V14.3724V14.2651V14.158V14.0512V13.9447V13.8383V13.7323V13.6265V13.5209V13.4156V13.3106V13.2058V13.1013V12.997V12.893V12.7893V12.6858V12.5826V12.4797V12.3771V12.2747V12.1726V12.0708V11.9693V11.8681V11.7671V11.6664V11.5661V11.466V11.3662V11.2667V11.1675V11.0687V10.9701V10.8718V10.7738V10.6762V10.5788V10.4818V10.385V10.2886V10.1925V10.0968V10.0013V9.9062V9.8114V9.71693V9.62279V9.52898V9.43551V9.34237V9.24957V9.15711V9.065V8.97323V8.8818V8.79072V8.69999V8.60962V8.51959V8.42992V8.34062V8.25167V8.16308V8.07485V7.987Z" stroke="#DDDDDD"/>
</g>
<defs>
<filter id="filter0_d" x="0.00317383" y="0" width="485.01" height="65" filterUnits="userSpaceOnUse" color-interpolation-filters="sRGB">
<feFlood flood-opacity="0" result="BackgroundImageFix"/>
<feColorMatrix in="SourceAlpha" type="matrix" values="0 0 0 0 0 0 0 0 0 0 0 0 0 0 0 0 0 0 127 0"/>
<feOffset dy="1"/>
<feColorMatrix type="matrix" values="0 0 0 0 0 0 0 0 0 0 0 0 0 0 0 0 0 0 0.1 0"/>
<feBlend mode="normal" in2="BackgroundImageFix" result="effect1_dropShadow"/>
<feBlend mode="normal" in="SourceGraphic" in2="effect1_dropShadow" result="shape"/>
</filter>
</defs>
</svg>
