<svg width="496" height="78" viewBox="0 0 496 78" fill="none" xmlns="http://www.w3.org/2000/svg">
<g filter="url(#filter0_d)">
<path d="M488 7.9928C488 3.57452 484.418 0 480 0H7.99994C3.58167 0 -6.10352e-05 3.58172 -6.10352e-05 8V69C-6.10352e-05 73.4183 3.29758 77 7.71585 77C70.6537 77 497.316 77 495 77C492.5 77 488 74 488 70C488 66.8667 488 25.689 488 7.9928Z" fill="#E6F0F9"/>
<path d="M487.5 7.9928C487.5 3.85125 484.143 0.5 480 0.5H7.99994C3.85782 0.5 0.499939 3.85786 0.499939 8V69C0.499939 73.1661 3.59711 76.5 7.71585 76.5H8.08878H8.47H8.8595H9.25717H9.66306H10.0771H10.4992H10.9294H11.3677H11.814H12.2682H12.7303H13.2004H13.6783H14.1641H14.6577H15.159H15.668H16.1848H16.7091H17.2411H17.7807H18.3278H18.8824H19.4445H20.0141H20.591H21.1753H21.767H22.3659H22.9721H23.5855H24.2062H24.834H25.4688H26.1108H26.7599H27.4159H28.0789H28.7489H29.4258H30.1095H30.8001H31.4975H32.2016H32.9125H33.6301H34.3543H35.0852H35.8226H36.5666H37.3171H38.0742H38.8376H39.6075H40.3837H41.1663H41.9551H42.7503H43.5517H44.3593H45.173H45.9929H46.8188H47.6509H48.4889H49.3329H50.1829H51.0388H51.9006H52.7682H53.6417H54.5209H55.4058H56.2964H57.1927H58.0947H59.0023H59.9153H60.834H61.7581H62.6877H63.6227H64.563H65.5088H66.4598H67.4161H68.3777H69.3444H70.3163H71.2934H72.2756H73.2628H74.2551H75.2523H76.2545H77.2617H78.2737H79.2906H80.3123H81.3388H82.37H83.4059H84.4465H85.4918H86.5416H87.5961H88.655H89.7185H90.7864H91.8587H92.9355H94.0165H95.102H96.1917H97.2856H98.3838H99.4861H100.593H101.703H102.818H103.937H105.059H106.186H107.316H108.451H109.589H110.732H111.877H113.027H114.181H115.338H116.499H117.663H118.831H120.002H121.177H122.356H123.538H124.723H125.912H127.104H128.299H129.498H130.699H131.904H133.112H134.324H135.538H136.755H137.976H139.199H140.425H141.654H142.887H144.121H145.359H146.599H147.843H149.089H150.337H151.588H152.842H154.098H155.357H156.618H157.882H159.148H160.416H161.687H162.96H164.236H165.513H166.793H168.075H169.359H170.645H171.934H173.224H174.516H175.81H177.106H178.404H179.704H181.006H182.309H183.614H184.921H186.229H187.539H188.851H190.164H191.479H192.795H194.113H195.432H196.753H198.074H199.398H200.722H202.048H203.375H204.703H206.032H207.362H208.693H210.026H211.359H212.693H214.028H215.365H216.701H218.039H219.378H220.717H222.057H223.398H224.739H226.081H227.423H228.766H230.11H231.454H232.798H234.143H235.488H236.833H238.179H239.525H240.871H242.217H243.564H244.91H246.257H247.603H248.95H250.297H251.643H252.99H254.336H255.682H257.028H258.374H259.719H261.064H262.409H263.753H265.097H266.44H267.783H269.125H270.467H271.808H273.149H274.489H275.828H277.166H278.504H279.841H281.177H282.512H283.846H285.179H286.511H287.842H289.173H290.502H291.829H293.156H294.482H295.806H297.129H298.45H299.771H301.09H302.407H303.723H305.038H306.351H307.662H308.972H310.28H311.587H312.892H314.195H315.496H316.796H318.093H319.389H320.683H321.975H323.265H324.553H325.839H327.122H328.404H329.684H330.961H332.236H333.509H334.779H336.047H337.313H338.576H339.837H341.096H342.351H343.605H344.856H346.104H347.349H348.592H349.832H351.069H352.304H353.535H354.764H355.99H357.213H358.433H359.65H360.863H362.074H363.282H364.486H365.688H366.886H368.081H369.272H370.46H371.645H372.827H374.004H375.179H376.35H377.517H378.681H379.841H380.998H382.151H383.3H384.446H385.587H386.725H387.859H388.989H390.115H391.237H392.355H393.469H394.579H395.685H396.787H397.884H398.978H400.067H401.152H402.232H403.308H404.38H405.447H406.51H407.568H408.622H409.671H410.716H411.756H412.791H413.821H414.847H415.868H416.884H417.896H418.902H419.904H420.9H421.892H422.878H423.859H424.836H425.807H426.773H427.734H428.689H429.64H430.584H431.524H432.458H433.387H434.31H435.228H436.14H437.047H437.948H438.844H439.734H440.618H441.496H442.369H443.235H444.096H444.951H445.8H446.644H447.481H448.312H449.137H449.956H450.769H451.576H452.376H453.17H453.958H454.74H455.515H456.284H457.047H457.803H458.552H459.295H460.032H460.762H461.485H462.201H462.911H463.614H464.311H465H465.683H466.359H467.028H467.69H468.345H468.993H469.634H470.268H470.895H471.514H472.126H472.732H473.33H473.92H474.503H475.079H475.648H476.209H476.762H477.308H477.847H478.378H478.901H479.416H479.924H480.424H480.917H481.401H481.878H482.347H482.808H483.261H483.706H484.143H484.572H484.993H485.406H485.811H486.207H486.596H486.976H487.347H487.711H488.066H488.412H488.751H489.08H489.401H489.714H490.018H490.314H490.601H490.879H491.148H491.409H491.661H491.812C491.265 76.1865 490.73 75.808 490.234 75.3773C488.731 74.0699 487.5 72.1935 487.5 70V69.9812V69.9615V69.941V69.9196V69.8974V69.8743V69.8503V69.8255V69.7998V69.7733V69.746V69.7178V69.6888V69.6589V69.6282V69.5967V69.5643V69.5311V69.4971V69.4623V69.4267V69.3903V69.353V69.3149V69.2761V69.2364V69.1959V69.1547V69.1126V69.0697V69.0261V68.9817V68.9365V68.8905V68.8437V68.7962V68.7479V68.6988V68.649V68.5984V68.547V68.4949V68.442V68.3883V68.3339V68.2788V68.2229V68.1663V68.109V68.0509V67.992V67.9325V67.8722V67.8112V67.7495V67.687V67.6238V67.56V67.4954V67.4301V67.3641V67.2974V67.2299V67.1618V67.093V67.0235V66.9534V66.8825V66.8109V66.7387V66.6658V66.5922V66.5179V66.443V66.3674V66.2911V66.2142V66.1366V66.0584V65.9795V65.9V65.8198V65.7389V65.6574V65.5753V65.4926V65.4092V65.3252V65.2405V65.1552V65.0693V64.9828V64.8957V64.8079V64.7196V64.6306V64.541V64.4508V64.36V64.2686V64.1767V64.0841V63.9909V63.8972V63.8028V63.7079V63.6124V63.5163V63.4197V63.3225V63.2247V63.1263V63.0274V62.9279V62.8279V62.7273V62.6262V62.5245V62.4223V62.3195V62.2162V62.1123V62.0079V61.903V61.7975V61.6916V61.5851V61.478V61.3705V61.2624V61.1538V61.0448V60.9352V60.8251V60.7145V60.6034V60.4918V60.3797V60.2671V60.154V60.0405V59.9264V59.8119V59.6969V59.5815V59.4655V59.3491V59.2322V59.1149V58.9971V58.8788V58.7601V58.6409V58.5213V58.4013V58.2807V58.1598V58.0384V57.9166V57.7943V57.6716V57.5485V57.425V57.301V57.1766V57.0518V56.9266V56.801V56.6749V56.5485V56.4216V56.2944V56.1667V56.0387V55.9103V55.7814V55.6522V55.5226V55.3927V55.2623V55.1316V55.0005V54.869V54.7372V54.605V54.4724V54.3395V54.2062V54.0726V53.9386V53.8042V53.6696V53.5345V53.3992V53.2635V53.1275V52.9911V52.8544V52.7174V52.58V52.4424V52.3044V52.1661V52.0275V51.8886V51.7493V51.6098V51.47V51.3298V51.1894V51.0487V50.9077V50.7664V50.6248V50.4829V50.3408V50.1984V50.0557V49.9127V49.7695V49.626V49.4822V49.3382V49.1939V49.0494V48.9046V48.7596V48.6143V48.4688V48.323V48.177V48.0307V47.8843V47.7376V47.5906V47.4435V47.2961V47.1485V47.0007V46.8527V46.7044V46.556V46.4073V46.2585V46.1094V45.9602V45.8107V45.6611V45.5113V45.3613V45.2111V45.0607V44.9102V44.7594V44.6085V44.4575V44.3062V44.1549V44.0033V43.8516V43.6997V43.5477V43.3955V43.2432V43.0907V42.9381V42.7854V42.6325V42.4795V42.3263V42.173V42.0196V41.8661V41.7125V41.5587V41.4048V41.2508V41.0967V40.9425V40.7882V40.6338V40.4793V40.3247V40.17V40.0152V39.8604V39.7054V39.5504V39.3953V39.2401V39.0848V38.9295V38.7741V38.6186V38.4631V38.3075V38.1519V37.9962V37.8404V37.6846V37.5288V37.3729V37.217V37.061V36.905V36.749V36.5929V36.4368V36.2807V36.1246V35.9684V35.8123V35.6561V35.4999V35.3437V35.1875V35.0313V34.8751V34.7189V34.5628V34.4066V34.2504V34.0943V33.9381V33.782V33.6259V33.4699V33.3138V33.1578V33.0018V32.8459V32.69V32.5342V32.3784V32.2226V32.0669V31.9112V31.7556V31.6001V31.4446V31.2892V31.1339V30.9786V30.8234V30.6683V30.5132V30.3582V30.2034V30.0486V29.8939V29.7392V29.5847V29.4303V29.276V29.1217V28.9676V28.8136V28.6597V28.5059V28.3523V28.1987V28.0453V27.892V27.7388V27.5858V27.4329V27.2801V27.1275V26.975V26.8226V26.6704V26.5184V26.3665V26.2147V26.0631V25.9117V25.7604V25.6093V25.4584V25.3076V25.1571V25.0067V24.8564V24.7064V24.5565V24.4069V24.2574V24.1081V23.959V23.8101V23.6614V23.513V23.3647V23.2166V23.0688V22.9211V22.7737V22.6265V22.4795V22.3328V22.1863V22.04V21.8939V21.7481V21.6026V21.4572V21.3121V21.1673V21.0227V20.8784V20.7343V20.5905V20.447V20.3037V20.1607V20.0179V19.8754V19.7332V19.5913V19.4497V19.3083V19.1673V19.0265V18.886V18.7458V18.6059V18.4664V18.3271V18.1881V18.0494V17.9111V17.773V17.6353V17.4979V17.3608V17.2241V17.0876V16.9515V16.8158V16.6804V16.5453V16.4105V16.2761V16.1421V16.0084V15.875V15.742V15.6094V15.4771V15.3452V15.2137V15.0825V14.9517V14.8213V14.6913V14.5616V14.4323V14.3034V14.1749V14.0468V13.9191V13.7917V13.6648V13.5383V13.4122V13.2865V13.1612V13.0363V12.9118V12.7878V12.6642V12.541V12.4182V12.2959V12.174V12.0525V11.9314V11.8108V11.6907V11.571V11.4517V11.3329V11.2146V11.0967V10.9793V10.8623V10.7458V10.6298V10.5142V10.3991V10.2845V10.1704V10.0568V9.94359V9.83092V9.71874V9.60705V9.49586V9.38516V9.27497V9.16528V9.0561V8.94743V8.83928V8.73163V8.62451V8.51791V8.41183V8.30627V8.20125V8.09676V7.9928Z" stroke="#D2DEE8"/>
</g>
<defs>
<filter id="filter0_d" x="0" y="0" width="495.009" height="78" filterUnits="userSpaceOnUse" color-interpolation-filters="sRGB">
<feFlood flood-opacity="0" result="BackgroundImageFix"/>
<feColorMatrix in="SourceAlpha" type="matrix" values="0 0 0 0 0 0 0 0 0 0 0 0 0 0 0 0 0 0 127 0"/>
<feOffset dy="1"/>
<feColorMatrix type="matrix" values="0 0 0 0 0.823529 0 0 0 0 0.870588 0 0 0 0 0.909804 0 0 0 1 0"/>
<feBlend mode="normal" in2="BackgroundImageFix" result="effect1_dropShadow"/>
<feBlend mode="normal" in="SourceGraphic" in2="effect1_dropShadow" result="shape"/>
</filter>
</defs>
</svg>
