<svg width="606" height="118" viewBox="0 0 606 118" fill="none" xmlns="http://www.w3.org/2000/svg">
<g filter="url(#filter0_d)">
<path d="M7.01258 7.95222C7.01258 3.53394 10.5943 0 15.0126 0H597.013C601.431 0 605.013 3.58172 605.013 8V109C605.013 113.418 601.617 117 597.199 117C526.353 117 -2.31994 117 0.0125777 117C2.51258 117 7.01258 114 7.01258 110C7.01258 106.67 7.01258 32.6639 7.01258 7.95222Z" fill="#F1F1F1"/>
<path d="M7.51258 7.95222C7.51258 3.81398 10.8665 0.5 15.0126 0.5H597.013C601.155 0.5 604.513 3.85787 604.513 8V109C604.513 113.158 601.326 116.5 597.199 116.5H596.779H596.348H595.907H595.455H594.993H594.521H594.039H593.547H593.044H592.531H592.009H591.476H590.933H590.381H589.818H589.246H588.664H588.072H587.471H586.86H586.239H585.609H584.969H584.32H583.662H582.994H582.316H581.63H580.934H580.229H579.515H578.792H578.059H577.318H576.568H575.808H575.04H574.263H573.477H572.683H571.88H571.068H570.247H569.418H568.58H567.734H566.88H566.017H565.145H564.266H563.378H562.482H561.577H560.665H559.744H558.816H557.879H556.935H555.982H555.022H554.053H553.078H552.094H551.102H550.103H549.097H548.083H547.061H546.032H544.995H543.951H542.9H541.841H540.775H539.702H538.622H537.534H536.44H535.338H534.23H533.114H531.992H530.863H529.727H528.584H527.435H526.279H525.116H523.946H522.77H521.588H520.399H519.204H518.002H516.794H515.58H514.359H513.133H511.9H510.661H509.416H508.165H506.908H505.645H504.376H503.102H501.821H500.535H499.243H497.946H496.642H495.334H494.02H492.7H491.375H490.044H488.708H487.367H486.02H484.669H483.312H481.95H480.583H479.211H477.833H476.451H475.064H473.672H472.276H470.874H469.468H468.057H466.642H465.222H463.797H462.368H460.934H459.496H458.054H456.607H455.156H453.7H452.241H450.777H449.309H447.837H446.362H444.882H443.398H441.91H440.419H438.923H437.424H435.921H434.415H432.905H431.391H429.874H428.353H426.829H425.301H423.77H422.236H420.698H419.157H417.613H416.066H414.516H412.963H411.407H409.847H408.285H406.72H405.152H403.582H402.008H400.432H398.853H397.272H395.688H394.102H392.513H390.921H389.328H387.732H386.133H384.533H382.93H381.325H379.717H378.108H376.497H374.884H373.269H371.651H370.032H368.412H366.789H365.165H363.539H361.911H360.282H358.651H357.019H355.385H353.75H352.114H350.476H348.837H347.196H345.555H343.912H342.268H340.623H338.978H337.331H335.683H334.034H332.385H330.734H329.083H327.431H325.779H324.126H322.472H320.818H319.163H317.508H315.853H314.197H312.541H310.884H309.228H307.571H305.914H304.257H302.599H300.942H299.285H297.628H295.971H294.315H292.658H291.002H289.346H287.69H286.035H284.381H282.726H281.073H279.419H277.767H276.115H274.464H272.814H271.164H269.515H267.867H266.22H264.574H262.929H261.285H259.642H258.001H256.36H254.721H253.083H251.446H249.811H248.177H246.545H244.914H243.285H241.657H240.031H238.406H236.783H235.162H233.543H231.926H230.31H228.697H227.086H225.476H223.869H222.263H220.66H219.059H217.461H215.864H214.27H212.679H211.09H209.503H207.919H206.337H204.758H203.182H201.608H200.037H198.469H196.903H195.341H193.781H192.225H190.671H189.121H187.573H186.029H184.488H182.95H181.415H179.884H178.356H176.831H175.31H173.793H172.278H170.768H169.261H167.758H166.258H164.762H163.27H161.782H160.298H158.818H157.341H155.869H154.401H152.937H151.477H150.021H148.569H147.122H145.679H144.241H142.806H141.377H139.952H138.531H137.115H135.704H134.297H132.895H131.498H130.105H128.718H127.335H125.957H124.585H123.217H121.855H120.497H119.145H117.798H116.456H115.119H113.788H112.463H111.142H109.827H108.518H107.214H105.916H104.624H103.337H102.056H100.78H99.5111H98.2475H96.9899H95.7382H94.4926H93.2529H92.0194H90.7921H89.5709H88.3559H87.1473H85.9449H84.7489H83.5593H82.3762H81.1996H80.0295H78.866H77.7091H76.5589H75.4154H74.2786H73.1487H72.0256H70.9094H69.8002H68.6979H67.6027H66.5145H65.4335H64.3596H63.2929H62.2334H61.1813H60.1364H59.099H58.069H57.0464H56.0314H55.0239H54.024H53.0318H52.0473H51.0704H50.1014H49.1402H48.1868H47.2414H46.3039H45.3744H44.453H43.5396H42.6344H41.7374H40.8485H39.968H39.0957H38.2318H37.3763H36.5292H35.6907H34.8606H34.0391H33.2263H32.4221H31.6266H30.8398H30.0619H29.2927H28.5325H27.7812H27.0389H26.3056H25.5813H24.8662H24.1601H23.4633H22.7758H22.0975H21.4285H20.7689H20.1187H19.478H18.8467H18.225H17.6129H17.0105H16.4177H15.8346H15.2613H14.6979H14.1442H13.6005H13.0667H12.5429H12.0291H11.5255H11.0319H10.5485H10.0753H9.61234H9.15969H8.71738H8.28546H7.86398H7.45296H7.05246H6.66253H6.2832H5.91452H5.55654H5.20929H4.87283H4.5472H4.23244H3.9286H3.63571H3.35383H3.20063C3.74706 116.186 4.28288 115.808 4.77817 115.377C6.28166 114.07 7.51258 112.194 7.51258 110V109.98V109.958V109.934V109.909V109.882V109.854V109.824V109.793V109.76V109.725V109.689V109.651V109.612V109.571V109.528V109.484V109.439V109.392V109.343V109.293V109.242V109.189V109.134V109.078V109.021V108.962V108.901V108.839V108.776V108.711V108.645V108.577V108.507V108.437V108.365V108.291V108.216V108.14V108.062V107.983V107.902V107.82V107.737V107.652V107.566V107.478V107.389V107.299V107.207V107.114V107.02V106.924V106.827V106.729V106.629V106.528V106.426V106.322V106.217V106.111V106.003V105.894V105.784V105.673V105.56V105.446V105.331V105.214V105.097V104.978V104.857V104.736V104.613V104.489V104.364V104.238V104.11V103.981V103.852V103.72V103.588V103.454V103.32V103.184V103.047V102.909V102.769V102.629V102.487V102.344V102.2V102.055V101.909V101.762V101.613V101.464V101.313V101.161V101.008V100.855V100.7V100.543V100.386V100.228V100.069V99.9085V99.7472V99.5847V99.4213V99.2568V99.0913V98.9247V98.7572V98.5886V98.419V98.2485V98.0769V97.9043V97.7308V97.5562V97.3807V97.2043V97.0268V96.8484V96.6691V96.4888V96.3076V96.1254V95.9423V95.7583V95.5733V95.3875V95.2007V95.013V94.8245V94.635V94.4446V94.2534V94.0613V93.8683V93.6744V93.4797V93.2841V93.0877V92.8904V92.6923V92.4934V92.2936V92.093V91.8916V91.6894V91.4863V91.2825V91.0779V90.8724V90.6662V90.4592V90.2514V90.0429V89.8336V89.6235V89.4127V89.2011V88.9888V88.7758V88.562V88.3475V88.1322V87.9163V87.6996V87.4823V87.2642V87.0454V86.826V86.6058V86.385V86.1635V85.9414V85.7186V85.4951V85.271V85.0462V84.8207V84.5947V84.368V84.1407V83.9128V83.6842V83.4551V83.2253V82.9949V82.764V82.5324V82.3003V82.0676V81.8344V81.6005V81.3661V81.1312V80.8956V80.6596V80.423V80.1859V79.9482V79.7101V79.4714V79.2321V78.9924V78.7522V78.5115V78.2703V78.0286V77.7864V77.5438V77.3007V77.0571V76.813V76.5685V76.3236V76.0782V75.8324V75.5861V75.3394V75.0923V74.8448V74.5969V74.3485V74.0998V73.8507V73.6011V73.3512V73.1009V72.8503V72.5993V72.3479V72.0961V71.844V71.5916V71.3388V71.0856V70.8322V70.5784V70.3243V70.0699V69.8152V69.5602V69.3048V69.0492V68.7933V68.5371V68.2806V68.0239V67.7669V67.5096V67.2521V66.9944V66.7363V66.4781V66.2196V65.9609V65.702V65.4428V65.1834V64.9239V64.6641V64.4041V64.1439V63.8836V63.6231V63.3623V63.1015V62.8404V62.5792V62.3179V62.0564V61.7947V61.533V61.271V61.009V60.7468V60.4846V60.2222V59.9597V59.6971V59.4344V59.1716V58.9088V58.6458V58.3828V58.1197V57.8566V57.5934V57.3301V57.0668V56.8035V56.5401V56.2767V56.0133V55.7498V55.4864V55.2229V54.9594V54.696V54.4325V54.1691V53.9056V53.6422V53.3788V53.1155V52.8522V52.5889V52.3257V52.0625V51.7994V51.5364V51.2735V51.0106V50.7478V50.4851V50.2225V49.9599V49.6975V49.4352V49.173V48.9109V48.649V48.3872V48.1255V47.864V47.6026V47.3413V47.0803V46.8193V46.5586V46.298V46.0376V45.7774V45.5174V45.2576V44.9979V44.7385V44.4793V44.2203V43.9615V43.703V43.4447V43.1866V42.9288V42.6712V42.4139V42.1568V41.9V41.6435V41.3872V41.1312V40.8755V40.6201V40.365V40.1102V39.8557V39.6016V39.3477V39.0942V38.841V38.5881V38.3355V38.0834V37.8315V37.58V37.3289V37.0782V36.8278V36.5778V36.3282V36.0789V35.8301V35.5816V35.3336V35.086V34.8388V34.592V34.3456V34.0997V33.8542V33.6091V33.3645V33.1204V32.8767V32.6334V32.3907V32.1484V31.9065V31.6652V31.4244V31.184V30.9442V30.7049V30.466V30.2277V29.9899V29.7527V29.516V29.2798V29.0441V28.809V28.5745V28.3405V28.1071V27.8742V27.642V27.4103V27.1792V26.9487V26.7188V26.4895V26.2608V26.0327V25.8052V25.5784V25.3521V25.1266V24.9016V24.6773V24.4537V24.2307V24.0084V23.7867V23.5657V23.3454V23.1258V22.9069V22.6886V22.4711V22.2542V22.0381V21.8227V21.608V21.394V21.1808V20.9683V20.7565V20.5455V20.3353V20.1258V19.917V19.7091V19.5019V19.2955V19.0898V18.885V18.681V18.4777V18.2753V18.0737V17.8729V17.6729V17.4737V17.2754V17.0779V16.8813V16.6855V16.4906V16.2965V16.1033V15.9109V15.7195V15.5289V15.3392V15.1504V14.9625V14.7755V14.5894V14.4042V14.22V14.0367V13.8542V13.6728V13.4923V13.3127V13.134V12.9564V12.7797V12.6039V12.4291V12.2553V12.0825V11.9107V11.7399V11.5701V11.4012V11.2334V11.0666V10.9008V10.7361V10.5724V10.4097V10.2481V10.0875V9.92793V9.76945V9.61203V9.45569V9.30042V9.14623V8.99312V8.84111V8.69019V8.54037V8.39166V8.24406V8.09758V7.95222Z" stroke="#DDDDDD"/>
</g>
<defs>
<filter id="filter0_d" x="0.00488281" y="0" width="605.008" height="118" filterUnits="userSpaceOnUse" color-interpolation-filters="sRGB">
<feFlood flood-opacity="0" result="BackgroundImageFix"/>
<feColorMatrix in="SourceAlpha" type="matrix" values="0 0 0 0 0 0 0 0 0 0 0 0 0 0 0 0 0 0 127 0"/>
<feOffset dy="1"/>
<feColorMatrix type="matrix" values="0 0 0 0 0 0 0 0 0 0 0 0 0 0 0 0 0 0 0.1 0"/>
<feBlend mode="normal" in2="BackgroundImageFix" result="effect1_dropShadow"/>
<feBlend mode="normal" in="SourceGraphic" in2="effect1_dropShadow" result="shape"/>
</filter>
</defs>
</svg>
