<svg width="58" height="58" viewBox="0 0 58 58" fill="none" xmlns="http://www.w3.org/2000/svg">
<path d="M54 11H3V41H54V11Z" fill="#F9EAB0"/>
<path d="M56 41H41H37H2L0 52L2 58H37H41H56L58 52L56 41Z" fill="#7F5B53"/>
<path d="M17.0001 0H14.0241H14.0001V0.001C7.50206 0.012 1.83906 4.372 0.104064 10.637C-0.108936 11.406 0.188064 11 0.378064 11H14.0001H15.0001H29.0001V0H17.0001Z" fill="#71C285"/>
<path d="M45 11H57.645C57.823 11 58.046 11.172 57.902 10.659L57.896 10.636C56.277 4.689 51.075 0.473 45 0.043V0H43.976H41H29V11H43H45Z" fill="#F3D55B"/>
<path d="M16.999 37.972L9 29.973L10.126 28.847C13.922 25.051 20.078 25.051 23.874 28.847L25 29.973L17.001 37.972C17 37.973 17 37.973 16.999 37.972Z" fill="#BDC3C7"/>
<path d="M19 37.973H15V40.973H19V37.973Z" fill="#A5A5A4"/>
<path d="M39 40C40.6569 40 42 38.6569 42 37C42 35.3431 40.6569 34 39 34C37.3431 34 36 35.3431 36 37C36 38.6569 37.3431 40 39 40Z" fill="#14A085"/>
<path d="M45 40C46.6569 40 48 38.6569 48 37C48 35.3431 46.6569 34 45 34C43.3431 34 42 35.3431 42 37C42 38.6569 43.3431 40 45 40Z" fill="#4C8056"/>
<path d="M42 35C43.6569 35 45 33.6569 45 32C45 30.3431 43.6569 29 42 29C40.3431 29 39 30.3431 39 32C39 33.6569 40.3431 35 42 35Z" fill="#71C285"/>
<path d="M29 11H15C16.158 4.63 21.706 0 28.18 0H29V11Z" fill="#F3D55B"/>
<path d="M43 11H29V0H29.82C36.294 0 41.842 4.63 43 11Z" fill="#71C285"/>
<path d="M8 20H7C3.134 20 0 16.866 0 13V11.16C0 11.072 0.072 11 0.16 11H15V13C15 16.866 11.866 20 8 20Z" fill="#68AD77"/>
<path d="M22 20C18.134 20 15 16.866 15 13V11H29V13C29 16.866 25.866 20 22 20Z" fill="#DDC357"/>
<path d="M36 20C32.134 20 29 16.866 29 13V11H43V13C43 16.866 39.866 20 36 20Z" fill="#68AD77"/>
<path d="M51 20H50C46.134 20 43 16.866 43 13V11H57.84C57.928 11 58 11.072 58 11.16V13C58 16.866 54.866 20 51 20Z" fill="#DDC357"/>
<path d="M2 17.894V41H6V19.92C4.442 19.697 3.05 18.967 2 17.894Z" fill="#7F6E5D"/>
<path d="M52 19.92V41H56V17.894C54.95 18.967 53.558 19.697 52 19.92Z" fill="#7F6E5D"/>
<path d="M0 52L2 58H21L19 52H0Z" fill="#805333"/>
<path d="M39 52L37 58H56L58 52H39Z" fill="#805333"/>
<path d="M37 58H21L19 52H39L37 58Z" fill="#563621"/>
<path d="M16.999 37.972C16.999 37.972 17 37.972 17.001 37.972L18 36.973V29.973C18 29.42 17.552 28.973 17 28.973C16.448 28.973 16 29.42 16 29.973V36.973L16.999 37.972Z" fill="#ECF0F1"/>
<path d="M24 38.974H10C9.448 38.974 9 38.527 9 37.974C9 37.421 9.448 36.974 10 36.974H24C24.552 36.974 25 37.421 25 37.974C25 38.527 24.552 38.974 24 38.974Z" fill="#D1D4D1"/>
<path d="M21 41H2L0 52H19L21 41Z" fill="#24AE5F"/>
<path d="M58 52L56 41H37L39 52H58Z" fill="#71C285"/>
<path d="M37 41H21L19 52H39L37 41Z" fill="#4C8056"/>
</svg>
