<svg width="55" height="55" viewBox="0 0 55 55" fill="none" xmlns="http://www.w3.org/2000/svg">
<g clip-path="url(#clip0)">
<path d="M11.254 19.9787C10.9179 19.9787 10.5888 19.8092 10.3991 19.5012C9.78312 18.5029 8.63233 17.3481 7.31098 17.3902C6.74914 17.3601 6.29364 16.9708 6.27758 16.418C6.26053 15.8632 6.69596 15.4007 7.24978 15.3836C9.36374 15.3204 11.1667 16.9227 12.1068 18.4487C12.3977 18.9203 12.2512 19.5383 11.7797 19.8293C11.6162 19.9306 11.4336 19.9787 11.254 19.9787Z" fill="#436B1C"/>
<path d="M31.7884 6.61878C31.654 4.66435 30.0296 3.11926 28.0411 3.11926C28.0351 3.11926 28.0301 3.12027 28.024 3.12027C28.0591 2.82429 28.0391 2.51126 27.9438 2.18519C27.6749 1.26817 26.8682 0.563855 25.9191 0.450482C25.1405 0.358178 24.4262 0.637096 23.9255 1.13172C23.449 0.701308 22.8249 0.432423 22.1326 0.432423C20.6488 0.432423 19.4468 1.63538 19.4468 3.11826C19.4468 3.12328 19.4478 3.12729 19.4478 3.13231C17.6449 3.26876 16.2232 4.77271 16.2232 6.61075C16.2232 6.89168 16.2603 7.16357 16.3225 7.42544C14.1765 7.51473 12.4628 9.27853 12.4628 11.4467C12.4628 12.1811 12.6625 12.8673 13.0056 13.4603C12.3464 14.0021 11.925 14.8238 11.925 15.7438C11.925 16.5846 12.2812 17.3381 12.8451 17.8748C15.265 15.8973 17.8074 22.5111 20.8013 27.7915C21.7955 29.5452 32.5379 27.6771 33.3937 28.7667C34.3689 27.8898 34.999 12.6195 35.0261 11.2781C35.0682 9.12603 33.7017 7.28999 31.7884 6.61878Z" fill="#88C057"/>
<path d="M33.1621 26.6206L33.8775 26.1922C35.2018 25.3976 36.8553 25.3976 38.1786 26.1922L38.894 26.6206C40.2184 27.4152 41.8718 27.4152 43.1952 26.6206L45.2168 25.7216C45.5138 24.8929 45.7205 24.2929 45.8027 24.0271C47.6889 17.9601 48.9039 11.5721 49.0695 5.20011C49.1357 2.63768 47.0167 -1.35847 43.4961 0.457505C40.0358 2.24138 37.5576 9.08289 35.8159 12.3316C33.3417 16.9478 31.3853 21.9683 29.9917 27.0841C31.0532 27.352 32.195 27.2005 33.1621 26.6206Z" fill="#EEAF4B"/>
<path d="M7.07824 25.5902L8.42768 26.3999C9.97778 27.3299 11.9141 27.3299 13.4643 26.3999L13.8114 26.1912C15.1358 25.3966 16.7892 25.3966 18.1125 26.1912L18.8279 26.6196C19.6055 27.0861 20.4964 27.2707 21.3673 27.1895C22.0094 25.1157 21.7937 22.5231 20.7984 20.7683C17.4514 14.8639 14.6672 16.0669 11.9884 18.6303C11.4747 19.1219 10.8466 19.4821 10.1624 19.6778C7.22472 20.5175 5.05658 21.891 6.28964 25.6314C6.50736 25.4728 6.81035 25.4297 7.07824 25.5902Z" fill="#ED3F32"/>
<path d="M35.7094 24.4364C35.6031 24.4364 35.4937 24.4194 35.3874 24.3832C34.8626 24.2047 34.5817 23.6348 34.7603 23.1101C35.4295 21.1416 37.5786 20.0881 39.544 20.7503C40.4661 21.0643 41.4704 20.5687 41.7834 19.6467C41.961 19.1219 42.5289 18.839 43.0566 19.0186C43.5813 19.1972 43.8623 19.7671 43.6837 20.2918C43.0155 22.2613 40.8684 23.3187 38.8999 22.6515C37.9789 22.3385 36.9746 22.8351 36.6606 23.7552C36.5171 24.1746 36.1268 24.4364 35.7094 24.4364Z" fill="#A46F3E"/>
<path d="M38.0822 17.4464C37.9759 17.4464 37.8665 17.4294 37.7602 17.3932C37.2354 17.2147 36.9545 16.6448 37.1331 16.12C37.4572 15.1659 38.1334 14.3944 39.0364 13.9489C39.9393 13.5034 40.9617 13.4362 41.9168 13.7603C42.8409 14.0753 43.8432 13.5787 44.1562 12.6556C44.3338 12.1299 44.9037 11.848 45.4284 12.0276C45.9531 12.2062 46.2341 12.776 46.0555 13.3008C45.3873 15.2713 43.2402 16.3267 41.2717 15.6615C40.8253 15.509 40.3457 15.5401 39.9233 15.7488C39.5009 15.9575 39.1849 16.3177 39.0324 16.7652C38.8909 17.1835 38.5006 17.4464 38.0822 17.4464Z" fill="#A46F3E"/>
<path d="M40.456 10.4554C40.3497 10.4554 40.2403 10.4384 40.133 10.4022C39.6082 10.2236 39.3273 9.65377 39.5059 9.12904C40.0918 7.40136 41.977 6.4743 43.7047 7.05823C44.0358 7.1706 44.389 7.14852 44.701 6.99502C45.013 6.84151 45.2468 6.57463 45.3592 6.24455C45.5368 5.71982 46.1056 5.43789 46.6324 5.61648C47.1571 5.79507 47.438 6.36494 47.2594 6.88967C46.9745 7.72743 46.3815 8.40466 45.5889 8.79494C44.7953 9.18623 43.8974 9.24342 43.0596 8.95948C42.3794 8.72772 41.6369 9.09393 41.4062 9.77517C41.2637 10.1925 40.8734 10.4554 40.456 10.4554Z" fill="#A46F3E"/>
<path d="M23.4471 14.1415C22.4989 15.4027 21.003 16.8956 21.5789 19.5323L23.128 26.6206H23.129L23.8444 26.1922C25.1687 25.3976 26.8222 25.3976 28.1455 26.1922L28.8609 26.6206C29.4428 26.9697 29.9916 27.0851 29.9916 27.0851C31.037 23.2495 32.3985 19.4671 34.057 15.8692C33.2804 13.9268 31.622 13.2767 30.418 12.6115C30.411 12.6075 30.404 12.6035 30.3979 12.6005C29.6364 12.164 29.5893 11.1216 30.1622 10.4574C30.3879 10.1955 30.4922 9.83536 30.414 9.47418L30.2926 8.92035C30.1591 8.31035 29.5511 7.92106 28.9421 8.0545L22.8451 9.38488C22.2351 9.51832 21.8458 10.1263 21.9792 10.7353L22.1006 11.2891C22.1809 11.6584 22.4357 11.9443 22.7588 12.0838C23.5002 12.4038 23.9527 13.2315 23.5735 13.9449C23.5374 14.0121 23.4952 14.0773 23.4471 14.1415Z" fill="#DAE7EF"/>
<path d="M29.8441 10.935L22.9423 12.4429C22.1808 12.6095 21.4203 12.1219 21.2538 11.3604L21.1545 10.9069C20.9879 10.1454 21.4755 9.38488 22.237 9.21834L29.1387 7.71037C29.9002 7.54383 30.6607 8.03143 30.8273 8.79294L30.9266 9.24643C31.0932 10.0089 30.6056 10.7684 29.8441 10.935Z" fill="white"/>
<path d="M46.9705 25.4156L45.2197 50.5273C45.0913 53.0345 43.0215 55.001 40.5112 55.001H12.3475C9.83729 55.001 7.76748 53.0345 7.63905 50.5273L5.93043 26.2394C5.90134 25.6685 6.52037 25.2962 7.01099 25.5902L8.36043 26.3999C9.91053 27.3299 11.8469 27.3299 13.397 26.3999L13.7441 26.1912C15.0685 25.3966 16.7219 25.3966 18.0453 26.1912L18.7607 26.6206C20.085 27.4152 21.7385 27.4152 23.0618 26.6206L23.7772 26.1912C25.1015 25.3966 26.755 25.3966 28.0783 26.1912L28.7937 26.6206C30.118 27.4152 31.7715 27.4152 33.0948 26.6206L33.8102 26.1912C35.1345 25.3966 36.788 25.3966 38.1113 26.1912L38.8267 26.6206C40.151 27.4152 41.8045 27.4152 43.1278 26.6206L46.526 25.1106C46.7417 25.0143 46.9825 25.1799 46.9705 25.4156Z" fill="#FBD490"/>
<path d="M17.969 42.1387H10.9459C10.3921 42.1387 9.94263 41.6902 9.94263 41.1354C9.94263 40.5805 10.3921 40.1321 10.9459 40.1321H17.969C18.5229 40.1321 18.9723 40.5805 18.9723 41.1354C18.9723 41.6902 18.5229 42.1387 17.969 42.1387Z" fill="#E0B877"/>
<path d="M19.9756 46.1519H10.9459C10.3921 46.1519 9.94263 45.7034 9.94263 45.1486C9.94263 44.5938 10.3921 44.1453 10.9459 44.1453H19.9756C20.5295 44.1453 20.9789 44.5938 20.9789 45.1486C20.9789 45.7034 20.5295 46.1519 19.9756 46.1519Z" fill="#E0B877"/>
<path d="M21.9822 50.1651H10.9459C10.3921 50.1651 9.94263 49.7166 9.94263 49.1618C9.94263 48.607 10.3921 48.1585 10.9459 48.1585H21.9822C22.5361 48.1585 22.9855 48.607 22.9855 49.1618C22.9855 49.7166 22.5361 50.1651 21.9822 50.1651Z" fill="#E0B877"/>
<path d="M28.0021 50.1651H25.9955C25.4417 50.1651 24.9922 49.7166 24.9922 49.1618C24.9922 48.607 25.4417 48.1585 25.9955 48.1585H28.0021C28.5559 48.1585 29.0054 48.607 29.0054 49.1618C29.0054 49.7166 28.5559 50.1651 28.0021 50.1651Z" fill="#E0B877"/>
</g>
<defs>
<clipPath id="clip0">
<rect width="55" height="55" fill="white"/>
</clipPath>
</defs>
</svg>
