<svg width="55" height="55" viewBox="0 0 55 55" fill="none" xmlns="http://www.w3.org/2000/svg">
<g clip-path="url(#clip0)">
<path d="M35.5292 22.2361L34.9698 22.568L28.7293 26.4089L23.1716 28.4858H23.1623C20.1961 26.8382 16.5727 26.9146 13.6782 28.6852L14.4181 32.0803C17.5002 30.2119 20.4878 31.0278 22.5362 31.6917L26.1021 31.4923L26.1403 31.4735C30.1805 28.9982 34.4481 27.111 38.8773 24.7587L35.5292 22.2361Z" fill="#90BAE1"/>
<path d="M13.3454 28.0896C11.2576 24.7008 6.81874 23.6458 3.42949 25.7328C0.0406512 27.8194 -1.01566 32.2582 1.0701 35.6479C3.15628 39.0376 7.59471 40.0947 10.9848 38.0098C12.614 37.0076 13.7781 35.3994 14.2209 33.5386C14.6636 31.6782 14.3485 29.718 13.3454 28.0896ZM8.99599 34.7796C7.38991 35.7658 5.28862 35.2639 4.30114 33.6587C3.31408 32.0534 3.81432 29.9517 5.41872 28.963C7.02354 27.9746 9.12567 28.4732 10.1152 30.0772C10.5945 30.8481 10.746 31.7785 10.5358 32.6619C10.3259 33.5449 9.77154 34.3075 8.99599 34.7796Z" fill="#C03A2B"/>
<path d="M54.9998 43.7265H49.3095C46.5422 43.7282 43.8878 42.6295 41.9313 40.6726C39.9744 38.7161 38.8757 36.0617 38.8774 33.2944V31.3975C38.8744 28.0447 37.6889 24.8007 35.5293 22.2361C34.6253 21.1596 33.5639 20.2258 32.3809 19.4667L28.5778 17.7313C27.3029 17.3561 25.9801 17.1677 24.6514 17.1715C20.1232 17.1732 15.78 15.3753 12.5783 12.1736C9.37627 8.97155 7.5784 4.62839 7.58008 0.100571H34.1351C41.9909 0.103089 48.3586 6.47074 48.3611 14.3265V29.292C48.3644 32.3253 49.0926 35.3134 50.4855 38.0077C50.6563 38.3304 50.8271 38.6527 51.0168 38.9658C51.1779 39.2407 51.3391 39.5063 51.5195 39.7623C52.4835 41.2437 53.6556 42.5787 54.9998 43.7265Z" fill="#F0C419"/>
<path d="M51.5193 39.7623C51.3699 39.8605 51.1954 39.9134 51.0166 39.9142H50.9977C45.2407 39.8005 42.6706 38.2641 42.6706 29.5005C42.6782 27.3539 42.3089 25.2224 41.5799 23.2034C41.1426 21.9872 40.5668 20.826 39.8634 19.7415C38.6363 17.8413 37.0084 16.2323 35.0931 15.0282C34.6478 14.7504 34.5118 14.1645 34.7896 13.7193C35.067 13.274 35.6529 13.1384 36.0982 13.4159C38.2494 14.7676 40.0787 16.5739 41.4569 18.7079C42.2362 19.9149 42.8758 21.2066 43.3631 22.5584C44.1671 24.7843 44.5751 27.134 44.5675 29.5005C44.5675 37.2015 46.3885 37.875 50.4853 38.0077C50.6561 38.3304 50.8269 38.6527 51.0166 38.9658C51.1777 39.2406 51.3389 39.5063 51.5193 39.7623Z" fill="#F29C1F"/>
<path d="M32.7883 12.7708C32.6582 13.1573 32.2952 13.4171 31.8877 13.4159C31.7845 13.4142 31.6825 13.3982 31.5839 13.3684C29.6538 12.731 27.6323 12.4137 25.5998 12.4296C13.4885 12.4296 12.3315 0.299494 12.3223 0.176111V0.100571H14.2284C14.3325 1.11533 15.594 10.5327 25.5998 10.5327C27.8383 10.5193 30.0642 10.8685 32.1911 11.5664C32.6838 11.7393 32.9491 12.2739 32.7883 12.7708Z" fill="#F29C1F"/>
<path d="M43.6192 13.3781C43.6192 13.9018 43.1945 14.3265 42.6708 14.3265C42.147 14.3265 41.7223 13.9018 41.7223 13.3781C41.7223 9.23343 38.3842 7.68778 29.3932 7.68778C26.7094 7.68778 24.6703 6.90972 23.3521 5.38296C22.1665 3.89145 21.6088 1.99664 21.7968 0.100571H23.7029C23.7046 0.145056 23.7012 0.189541 23.6933 0.233186C23.543 1.63446 23.9367 3.04036 24.7936 4.15962C25.7421 5.24069 27.2877 5.79088 29.3932 5.79088C34.363 5.79088 43.6192 5.79088 43.6192 13.3781Z" fill="#F29C1F"/>
<path d="M25.4764 41.3558C27.4699 38.5218 27.6545 34.7939 25.9507 31.7768L27.7716 28.2583L28.7293 26.4089L32.0392 20.0261L38.934 8.77811C38.934 8.77811 35.131 7.27988 30.797 14.0135C26.8895 20.0735 25.5998 24.2656 23.1716 28.4858H23.1624C22.8967 28.9508 22.6219 29.4154 22.3184 29.8896C22.1094 30.2119 22.2802 30.838 22.5362 31.6917C23.1813 33.7875 24.3954 37.2112 22.062 40.6919L25.4764 41.3558Z" fill="#B0D3F0"/>
<path d="M26.3347 41.8301C22.9882 39.6755 18.5288 40.6411 16.3734 43.9872C14.2179 47.3328 15.1828 51.7926 18.5279 53.9489C21.8736 56.1051 26.3334 55.1416 28.4905 51.7968C29.5271 50.1895 29.8821 48.2359 29.478 46.3667C29.0734 44.4971 27.9428 42.8654 26.3347 41.8301ZM25.3018 49.7433C24.2791 51.3263 22.1673 51.7808 20.5835 50.7594C18.9997 49.7379 18.5435 47.6265 19.5637 46.0419C20.5839 44.4576 22.6953 43.9993 24.2804 45.0183C25.0437 45.5089 25.5805 46.2827 25.7723 47.1699C25.9641 48.0567 25.7945 48.9833 25.3018 49.745V49.7433Z" fill="#E64C3C"/>
</g>
<defs>
<clipPath id="clip0">
<rect width="55" height="55" fill="white"/>
</clipPath>
</defs>
</svg>
