<svg width="59" height="59" viewBox="0 0 59 59" fill="none" xmlns="http://www.w3.org/2000/svg">
<path d="M7.86684 42.0001C7.32374 42.0001 6.88354 41.5524 6.88354 41.0001V14.0001C6.88354 13.4478 7.32386 13.0001 7.86684 13.0001C8.40994 13.0001 8.85014 13.4479 8.85014 14.0001V41.0001C8.85014 41.5523 8.40994 42.0001 7.86684 42.0001Z" fill="#95A5A5"/>
<path d="M24.5835 49H30.4835V56C30.4835 57.1046 29.603 58 28.5168 58H26.5502C25.464 58 24.5835 57.1046 24.5835 56V49Z" fill="#2C3E50"/>
<path d="M47.2001 49H53.1001V56C53.1001 57.1046 52.2196 58 51.1334 58H49.1667C48.0805 58 47.2 57.1046 47.2 56V49H47.2001Z" fill="#2C3E50"/>
<path d="M54.526 0H23.1577C21.111 0.131367 19.552 1.91778 19.6669 3.99997V45.0001L21.9945 50.4397C22.1224 50.7694 22.4313 50.9899 22.7797 51.0001H54.9041C55.2524 50.9899 55.5614 50.7694 55.6893 50.4397L58.0169 45.0001V3.99997C58.1317 1.91766 56.5728 0.131367 54.526 0Z" fill="#CC4B4C"/>
<path d="M58.0166 45.0001L55.6891 50.4397C55.5612 50.7694 55.2522 50.9899 54.9039 51.0001H22.7793C22.4309 50.9899 22.122 50.7694 21.9941 50.4397L19.6665 45.0001H58.0166Z" fill="#C03A2B"/>
<path d="M25.5671 4.00018H52.1171C53.2033 4.00018 54.0838 4.89561 54.0838 6.00022V7.00019C54.0838 8.1048 53.2033 9.00023 52.1171 9.00023H25.5671C24.4808 9.00023 23.6003 8.1048 23.6003 7.00019V6.00022C23.6003 4.89561 24.4808 4.00018 25.5671 4.00018Z" fill="#E57E25"/>
<path d="M26.5503 41C28.1796 41 29.5004 39.6568 29.5004 38C29.5004 36.3431 28.1796 35 26.5503 35C24.9211 35 23.6003 36.3431 23.6003 38C23.6003 39.6568 24.9211 41 26.5503 41Z" fill="#F0C419"/>
<path d="M51.1336 41C52.7628 41 54.0836 39.6568 54.0836 38C54.0836 36.3431 52.7628 35 51.1336 35C49.5044 35 48.1836 36.3431 48.1836 38C48.1836 39.6568 49.5044 41 51.1336 41Z" fill="#F0C419"/>
<path d="M25.5671 12.9998H52.1171C53.2033 12.9998 54.0838 13.8952 54.0838 14.9998V28.9999C54.0838 30.1045 53.2033 30.9999 52.1171 30.9999H25.5671C24.4808 30.9999 23.6003 30.1045 23.6003 28.9999V14.9998C23.6003 13.8952 24.4808 12.9998 25.5671 12.9998Z" fill="#67B9CC"/>
<path d="M35.4003 40H42.2836C43.3698 40 44.2503 40.8955 44.2503 42.0001V45.0001H33.4336V42.0001C33.4336 40.8955 34.3141 40 35.4003 40Z" fill="#802F34"/>
<path d="M7.86671 18.0001C11.6683 18.0001 14.75 14.8661 14.75 11.0002C14.75 7.13418 11.6683 4.00018 7.86671 4.00018C4.06516 4.00018 0.983398 7.13418 0.983398 11.0002C0.983398 14.8661 4.06516 18.0001 7.86671 18.0001Z" fill="#CC4B4C"/>
<path d="M6.8831 37H8.84981C9.93601 37 10.8165 37.8954 10.8165 39.0001V58H4.9165V39.0001C4.9165 37.8954 5.79701 37 6.8831 37Z" fill="#7F8C8D"/>
<path d="M58.0168 59H0.983297C0.440311 59 0 58.5523 0 58C0 57.4477 0.440311 57.0001 0.983297 57.0001H58.0167C58.5598 57.0001 59 57.4479 59 58C59.0001 58.5523 58.5599 59 58.0168 59Z" fill="#BDC3C7"/>
</svg>
