<svg width="66" height="65" viewBox="0 0 66 65" fill="none" xmlns="http://www.w3.org/2000/svg">
<path d="M30.5537 26.441V32.6842V35.1807V63.8984H34.8872V35.1807V32.6842V26.441H30.5537Z" fill="#BDC3C7"/>
<path d="M43.5537 20.9325V28.6443C43.5502 29.8597 42.5823 30.8441 41.387 30.8477H24.0537C22.8585 30.8441 21.8905 29.8597 21.887 28.6443V20.9325H43.5537Z" fill="#95A5A5"/>
<path d="M43.5538 2.20343V23.1355H21.8872V2.20343C21.8908 0.988037 22.8587 0.00361493 24.0539 0H41.3872C42.5824 0.00361493 43.5504 0.988037 43.5538 2.20343Z" fill="#4482C3"/>
<path d="M34.345 3.30511H29.47C29.1826 3.30499 28.907 3.42092 28.7038 3.62762C28.5007 3.83431 28.3866 4.1146 28.3867 4.40676V18.7287C28.3867 19.3372 28.8717 19.8304 29.47 19.8304C30.0683 19.8304 30.5533 19.3372 30.5533 18.7287V13.2202H34.345C37.0374 13.2202 39.22 11.0007 39.22 8.2626C39.22 5.52455 37.0374 3.30511 34.345 3.30511ZM34.345 11.0169H30.5533V5.50841H34.345C35.8408 5.50841 37.0533 6.74149 37.0533 8.2626C37.0533 9.78371 35.8408 11.0169 34.345 11.0169Z" fill="white"/>
<path d="M26.22 28.6439C25.9326 28.6441 25.657 28.5281 25.4538 28.3214C25.2507 28.1147 25.1366 27.8345 25.1367 27.5423V26.4406C25.1367 25.8322 25.6218 25.339 26.22 25.339C26.8183 25.339 27.3033 25.8323 27.3033 26.4406V27.5423C27.3034 27.8346 27.1894 28.1149 26.9862 28.3214C26.7829 28.528 26.5074 28.6442 26.22 28.6439Z" fill="#E6E7E8"/>
<path d="M30.5535 28.6439C30.2661 28.6441 29.9905 28.5281 29.7873 28.3214C29.5842 28.1147 29.4701 27.8345 29.4702 27.5423V26.4406C29.4702 25.8322 29.9553 25.339 30.5535 25.339C31.1518 25.339 31.6368 25.8323 31.6368 26.4406V27.5423C31.6369 27.8346 31.5229 28.1149 31.3197 28.3214C31.1164 28.528 30.8409 28.6442 30.5535 28.6439Z" fill="#E6E7E8"/>
<path d="M34.8868 28.6439C34.5993 28.6441 34.3237 28.5281 34.1206 28.3214C33.9175 28.1147 33.8033 27.8345 33.8035 27.5423V26.4406C33.8035 25.8322 34.2884 25.339 34.8868 25.339C35.4851 25.339 35.9701 25.8323 35.9701 26.4406V27.5423C35.9702 27.8346 35.8562 28.1149 35.6529 28.3214C35.4497 28.5281 35.1741 28.6442 34.8868 28.6439Z" fill="#E6E7E8"/>
<path d="M39.22 28.6439C38.9326 28.6441 38.657 28.5281 38.4539 28.3214C38.2506 28.1147 38.1366 27.8345 38.1367 27.5423V26.4406C38.1367 25.8322 38.6217 25.339 39.22 25.339C39.8183 25.339 40.3033 25.8323 40.3033 26.4406V27.5423C40.3034 27.8346 40.1894 28.1149 39.9862 28.3214C39.7831 28.5281 39.5074 28.6442 39.22 28.6439Z" fill="#E6E7E8"/>
<path d="M26.2204 38.5593H39.2205C40.4171 38.5593 41.3872 39.5458 41.3872 40.7627V44.0678C41.3872 45.2847 40.4171 46.2712 39.2205 46.2712H26.2204C25.0238 46.2712 24.0537 45.2847 24.0537 44.0678V40.7627C24.0537 39.5458 25.0238 38.5593 26.2204 38.5593Z" fill="#95A5A5"/>
<path d="M64.1371 65H1.30351C0.705304 65 0.220215 64.5068 0.220215 63.8983C0.220215 63.2899 0.705304 62.7967 1.30351 62.7967H64.1369C64.7353 62.7967 65.2202 63.29 65.2202 63.8983C65.2203 64.5068 64.7354 65 64.1371 65Z" fill="#95A5A5"/>
</svg>
