<svg width="100" height="100" viewBox="0 0 100 100" fill="none" xmlns="http://www.w3.org/2000/svg">
<g clip-path="url(#clip0)">
<path d="M12.5 32.1433H1.78548C1.30193 32.1433 0.883458 32.3192 0.530075 32.6728C0.176496 33.0266 0 33.4452 0 33.929V44.6433C0 45.1266 0.176496 45.5461 0.530075 45.8989C0.883653 46.2513 1.30193 46.4289 1.78548 46.4289H12.5C12.9835 46.4289 13.402 46.2521 13.7554 45.8989C14.1089 45.5453 14.2854 45.1266 14.2854 44.6433V33.929C14.2854 33.4452 14.1087 33.0266 13.7554 32.6728C13.402 32.3198 12.9835 32.1433 12.5 32.1433Z" fill="#959597"/>
<path d="M12.5 75.0005H1.78548C1.30193 75.0005 0.883458 75.1756 0.530075 75.5296C0.176496 75.8832 0 76.3014 0 76.7854V87.5002C0 87.9832 0.176496 88.4011 0.530075 88.7551C0.883653 89.1094 1.30193 89.2855 1.78548 89.2855H12.5C12.9835 89.2855 13.402 89.109 13.7554 88.7551C14.1089 88.4019 14.2854 87.9832 14.2854 87.5002V76.7854C14.2854 76.3012 14.1087 75.8832 13.7554 75.5294C13.402 75.177 12.9835 75.0005 12.5 75.0005Z" fill="#959597"/>
<path d="M12.5 53.5709H1.78548C1.30193 53.5709 0.883458 53.7488 0.530075 54.1014C0.176692 54.454 0 54.874 0 55.357V66.0709C0 66.5552 0.176496 66.9739 0.530075 67.3271C0.883653 67.6805 1.30193 67.8562 1.78548 67.8562H12.5C12.9835 67.8562 13.402 67.681 13.7554 67.3271C14.1089 66.9739 14.2854 66.5552 14.2854 66.0709V55.357C14.2854 54.874 14.1087 54.4554 13.7554 54.1014C13.402 53.7482 12.9835 53.5709 12.5 53.5709Z" fill="#959597"/>
<path d="M12.5 10.7144H1.78548C1.30193 10.7144 0.883458 10.8909 0.530075 11.2444C0.176692 11.598 0 12.0165 0 12.5V23.2143C0 23.6981 0.176496 24.1163 0.530075 24.4699C0.883653 24.8235 1.30193 25 1.78548 25H12.5C12.9835 25 13.402 24.8241 13.7554 24.4699C14.1089 24.1163 14.2854 23.6981 14.2854 23.2143V12.5C14.2854 12.0163 14.1087 11.598 13.7554 11.2444C13.402 10.8918 12.9835 10.7144 12.5 10.7144Z" fill="#959597"/>
<path d="M98.2143 75.0005H23.2144C22.7309 75.0005 22.3124 75.1756 21.959 75.5296C21.6055 75.8834 21.429 76.3014 21.429 76.7856V87.5004C21.429 87.9834 21.6055 88.4013 21.959 88.7553C22.3126 89.1096 22.7303 89.2857 23.2144 89.2857H98.2143C98.6987 89.2857 99.1165 89.1092 99.4705 88.7553C99.8243 88.4013 100 87.9834 100 87.5004V76.7856C100 76.3014 99.8237 75.8834 99.4705 75.5296C99.1165 75.177 98.6985 75.0005 98.2143 75.0005Z" fill="#959597"/>
<path d="M98.2143 53.5709H23.2144C22.7309 53.5709 22.3124 53.7488 21.959 54.1014C21.6056 54.454 21.429 54.874 21.429 55.357V66.0709C21.429 66.5552 21.6055 66.9739 21.959 67.3271C22.3126 67.6805 22.7303 67.8562 23.2144 67.8562H98.2143C98.6987 67.8562 99.1165 67.681 99.4705 67.3271C99.8243 66.9739 100 66.5552 100 66.0709V55.357C100 54.874 99.8237 54.4554 99.4705 54.1014C99.1165 53.7488 98.6985 53.5709 98.2143 53.5709Z" fill="#959597"/>
<path d="M99.4705 11.2444C99.1165 10.8916 98.6987 10.7144 98.2143 10.7144H23.2144C22.7309 10.7144 22.3124 10.8909 21.959 11.2444C21.6056 11.598 21.429 12.0163 21.429 12.5V23.2143C21.429 23.6981 21.6055 24.1163 21.959 24.4699C22.3126 24.8235 22.7303 25 23.2144 25H98.2143C98.6987 25 99.1165 24.8241 99.4705 24.4699C99.8243 24.1163 100 23.6981 100 23.2143V12.5C100 12.0165 99.8235 11.598 99.4705 11.2444Z" fill="#959597"/>
<path d="M98.2143 32.1433H23.2144C22.7309 32.1433 22.3124 32.3192 21.959 32.6728C21.6055 33.0266 21.429 33.4452 21.429 33.929V44.6433C21.429 45.1266 21.6055 45.5453 21.959 45.8989C22.3126 46.2513 22.7303 46.4289 23.2144 46.4289H98.2143C98.6987 46.4289 99.1165 46.2521 99.4705 45.8989C99.8243 45.5453 100 45.1266 100 44.6433V33.929C100 33.4452 99.8237 33.0266 99.4705 32.6728C99.1165 32.3198 98.6985 32.1433 98.2143 32.1433Z" fill="#959597"/>
</g>
<defs>
<clipPath id="clip0">
<rect width="100" height="100" fill="white"/>
</clipPath>
</defs>
</svg>
