<svg width="45" height="45" viewBox="0 0 45 45" fill="none" xmlns="http://www.w3.org/2000/svg">
<path d="M12.7873 4.5H12.7497C12.7497 2.01472 10.735 0 8.24973 0C5.76444 0 3.74973 2.01472 3.74973 4.5C2.0929 4.5 0.749756 5.84314 0.749756 7.49997C0.749756 9.1568 2.0929 10.4999 3.74973 10.4999H8.69973L12.7873 4.5Z" fill="#BDC3C7"/>
<path d="M14.9997 29.2501H11.9998V43.5001H14.9997V29.2501Z" fill="#804537"/>
<path d="M21.4833 22.9546C22.6551 21.7999 23.3127 20.222 23.3076 18.5769C23.3548 15.2794 20.7205 12.5676 17.423 12.5192L17.3998 12.5204C18.0502 11.6439 18.4021 10.5818 18.4038 9.49029C18.443 6.74239 16.2478 4.48263 13.4999 4.4422C10.752 4.48263 8.55688 6.74239 8.59608 9.49029C8.59775 10.5817 8.94966 11.6439 9.60005 12.5204L9.57685 12.5192C6.27937 12.5676 3.64511 15.2794 3.69222 18.5769C3.68721 20.222 4.34481 21.7998 5.51665 22.9545C2.64518 23.9373 0.724944 26.6477 0.749993 29.6826C0.695061 33.5297 3.76833 36.6934 7.61539 36.7499C10.0506 36.736 12.2936 35.4246 13.5 33.3091C14.7064 35.4245 16.9494 36.736 19.3846 36.7499C23.2317 36.6933 26.305 33.5297 26.2501 29.6826C26.2749 26.6477 24.3548 23.9374 21.4833 22.9546Z" fill="#71C285"/>
<path d="M29.2501 44.2499C29.0512 44.25 28.8604 44.171 28.7196 44.0303C28.579 43.8896 28.5 43.6988 28.5 43.4999V32.9999C28.5 32.5857 28.8357 32.2499 29.25 32.2499C29.6642 32.2499 29.9999 32.5858 29.9999 32.9999V43.4999C30 43.6988 29.921 43.8896 29.7803 44.0304C29.6398 44.171 29.449 44.25 29.2501 44.2499Z" fill="#95A5A5"/>
<path d="M42.7501 44.2499C42.5512 44.25 42.3604 44.171 42.2196 44.0303C42.079 43.8896 42 43.6988 42 43.4999V32.9999C42 32.5857 42.3357 32.2499 42.75 32.2499C43.1642 32.2499 43.4999 32.5858 43.4999 32.9999V43.4999C43.5 43.6988 43.421 43.8896 43.2803 44.0304C43.1398 44.171 42.949 44.25 42.7501 44.2499Z" fill="#95A5A5"/>
<path d="M32.2502 17.2501C30.5934 17.2501 29.2502 15.9069 29.2502 14.2501C29.2502 12.5933 30.5934 11.2502 32.2502 11.2502C32.2502 8.76487 34.2649 6.75015 36.7502 6.75015C39.2355 6.75015 41.2502 8.76487 41.2502 11.2502C42.907 11.2502 44.2502 12.5933 44.2502 14.2501C44.2502 15.9069 42.907 17.2501 41.2502 17.2501H32.2502Z" fill="#BDC3C7"/>
<path d="M19.2802 27.2196C19.1396 27.0789 18.9489 26.9999 18.75 26.9999C18.5511 26.9999 18.3604 27.0789 18.2197 27.2196L14.2501 31.1893V23.5604L17.7803 20.0302C18.07 19.7368 18.0686 19.2646 17.7769 18.9729C17.4854 18.6814 17.0132 18.6799 16.7197 18.9696L14.25 21.4393V17.9999C14.25 17.5857 13.9142 17.2499 13.5 17.2499C13.0859 17.2499 12.75 17.5858 12.75 17.9999V21.4393L10.2803 18.9696C9.98694 18.6799 9.5147 18.6814 9.22308 18.9729C8.93155 19.2645 8.93005 19.7368 9.21974 20.0302L12.75 23.5605V31.1894L8.78029 27.2196C8.48691 26.9299 8.01467 26.9314 7.72305 27.2229C7.43152 27.5144 7.43002 27.9867 7.71971 28.2801L12.9692 33.5297C13.2628 33.8218 13.7372 33.8218 14.0308 33.5297L19.2802 28.2801C19.4209 28.1395 19.5 27.9488 19.5 27.7499C19.5 27.551 19.4209 27.3603 19.2802 27.2196Z" fill="#805333"/>
<path d="M44.25 44.25H0.749971C0.33583 44.25 0 43.9143 0 43.5C0 43.0858 0.33583 42.7501 0.749971 42.7501H44.2499C44.6642 42.7501 44.9999 43.0859 44.9999 43.5C45 43.9143 44.6642 44.25 44.25 44.25Z" fill="#BDC3C7"/>
<path d="M44.2498 34.4999H27.7497C27.3355 34.4999 26.9998 34.1642 26.9998 33.7499C26.9998 33.3357 27.3356 33 27.7497 33H44.2497C44.6639 33 44.9997 33.3358 44.9997 33.7499C44.9997 34.1641 44.664 34.4999 44.2498 34.4999Z" fill="#804537"/>
<path d="M44.2498 38.2499H27.7497C27.3355 38.2499 26.9998 37.9141 26.9998 37.4999C26.9998 37.0857 27.3356 36.7499 27.7497 36.7499H44.2497C44.6639 36.7499 44.9997 37.0857 44.9997 37.4999C44.9997 37.9141 44.664 38.2499 44.2498 38.2499Z" fill="#804537"/>
<path d="M44.2498 40.4998H27.7497C27.3355 40.4998 26.9998 40.1641 26.9998 39.7498C26.9998 39.3356 27.3356 38.9999 27.7497 38.9999H44.2497C44.6639 38.9999 44.9997 39.3356 44.9997 39.7498C44.9997 40.1641 44.664 40.4998 44.2498 40.4998Z" fill="#804537"/>
</svg>
