<svg width="100" height="100" viewBox="0 0 100 100" fill="none" xmlns="http://www.w3.org/2000/svg">
<path d="M70.195 71.6783C69.2783 71.5666 68.4517 72.2233 68.345 73.1383C68.2383 74.0533 68.8917 74.8816 69.805 74.9883C87.3317 77.0516 96.6667 82.6116 96.6667 85.8333C96.6667 90.3566 78.9133 96.6666 50 96.6666C21.0867 96.6666 3.33333 90.3566 3.33333 85.8333C3.33333 82.6116 12.6683 77.0516 30.195 74.9883C31.1083 74.8816 31.7617 74.0516 31.655 73.1383C31.5467 72.2233 30.72 71.5633 29.805 71.6783C12.2567 73.745 0 79.565 0 85.8333C0 92.8733 17.175 100 50 100C82.825 100 100 92.8733 100 85.8333C100 79.565 87.7433 73.745 70.195 71.6783Z" fill="#959597"/>
<path d="M49.7051 91.2617L75.2735 54.3333C84.8635 41.5483 83.4768 20.5333 72.3051 9.36333C66.2685 3.325 58.2418 0 49.7051 0C41.1685 0 33.1418 3.325 27.1051 9.36167C15.9335 20.5317 14.5468 41.5467 24.0985 54.2817L49.7051 91.2617ZM50.0001 20C56.4335 20 61.6668 25.235 61.6668 31.6667C61.6668 38.0983 56.4335 43.3333 50.0001 43.3333C43.5668 43.3333 38.3335 38.0983 38.3335 31.6667C38.3335 25.235 43.5668 20 50.0001 20Z" fill="#959597"/>
</svg>
