<svg width="264" height="1095" viewBox="0 0 264 1095" fill="none" xmlns="http://www.w3.org/2000/svg">
<path opacity="0.05" d="M74.6668 112.012C71.4668 66.3924 101.778 17.6503 117.333 2.58964e-06H173.333H202.797H224C224 2.58964e-06 160.131 86.6677 202.797 144.597C245.464 202.526 264 223.345 264 272.223C264 321.1 237.333 349.613 224 382.198C210.667 414.783 197.333 482.575 197.333 516.612C197.333 599.433 248 644.237 256 698.546C264 752.855 260 762.359 256 807.163C252.8 843.007 209.559 949.724 184 1002.67C158.441 1055.63 161.888 1095 161.888 1095H0L9.73525 1040.69C26.9601 994.529 40.0003 980.951 74.6668 926.643C109.333 872.334 136 815.31 109.333 733.847C82.6665 652.383 86.6667 683.611 68.0001 599.433C49.3334 515.254 106.667 432.433 136 359.117C159.467 300.463 172 266.792 128 223.345C83.9998 179.898 77.8668 157.631 74.6668 112.012Z" fill="#333333"/>
</svg>
